<?xml version="1.0" encoding="UTF-8"?>
<svg width="13px" height="18px" viewBox="0 0 13 18" version="1.1" xmlns="http://www.w3.org/2000/svg" xmlns:xlink="http://www.w3.org/1999/xlink">
    <!-- Generator: Sketch 46.2 (44496) - http://www.bohemiancoding.com/sketch -->
    <title>icon18</title>
    <desc>Created with Sketch.</desc>
    <defs>
        <path d="M4.26517463,15.4013835 C4.64825475,16.2619378 4.08123554,18.0216771 3.80837104,18.7905996 C4.30758826,18.546066 8.88334781,15.9844684 8.88334781,13.2698047 C8.88334781,11.8890929 7.76405968,10.7698047 6.38334781,10.7698047 C5.00263594,10.7698047 3.65496337,11.8448004 3.65496337,13.2255123 C3.65496337,14.398159 3.92274409,14.6321447 4.26517463,15.4013835 Z" id="path-1"></path>
    </defs>
    <g id="working" stroke="none" stroke-width="1" fill="none" fill-rule="evenodd">
        <g id="icon18" transform="translate(-2.000000, 0.000000)">
            <g id="Path" transform="translate(6.269156, 14.780202) rotate(-330.000000) translate(-6.269156, -14.780202) ">
                <use fill="#F51C73" fill-rule="evenodd" xlink:href="#path-1"></use>
                <path stroke="#F51C73" stroke-width="1" d="M4.67308593,17.7016667 C5.20660471,17.3563742 5.73132838,16.9757613 6.21203436,16.573175 C7.58354564,15.4245484 8.38334781,14.2787657 8.38334781,13.2698047 C8.38334781,12.1652352 7.48791731,11.2698047 6.38334781,11.2698047 C5.21078018,11.2698047 4.15496337,12.1843591 4.15496337,13.2255123 C4.15496337,13.8245294 4.21909897,14.1322658 4.38564893,14.4966648 C4.41068058,14.5514323 4.64114218,15.0164937 4.72195986,15.1980432 C4.99985083,15.8222998 4.94202374,16.6718259 4.67308593,17.7016667 Z"></path>
            </g>
            <path d="M10.6421887,0.821801072 C10.3660463,0.821801072 10.1421887,1.0456587 10.1421887,1.32180107 L10.1421887,10.3218011 C10.1421887,10.5979434 10.3660463,10.8218011 10.6421887,10.8218011 L11.6421887,10.8218011 C11.9183311,10.8218011 12.1421887,10.5979434 12.1421887,10.3218011 L12.1421887,1.32180107 C12.1421887,1.0456587 11.9183311,0.821801072 11.6421887,0.821801072 L10.6421887,0.821801072 Z" id="icon" stroke="#F51C73" transform="translate(11.142189, 5.821801) rotate(-330.000000) translate(-11.142189, -5.821801) "></path>
        </g>
    </g>
</svg>