<?xml version="1.0" encoding="UTF-8"?>
<svg width="16px" height="16px" viewBox="0 0 16 16" version="1.1" xmlns="http://www.w3.org/2000/svg" xmlns:xlink="http://www.w3.org/1999/xlink">
    <!-- Generator: Sketch 46.2 (44496) - http://www.bohemiancoding.com/sketch -->
    <title>icon18</title>
    <desc>Created with Sketch.</desc>
    <defs></defs>
    <g id="working" stroke="none" stroke-width="1" fill="none" fill-rule="evenodd">
        <g id="icon18" transform="translate(-1.000000, -1.000000)">
            <circle id="Oval" stroke="#F51C73" cx="9" cy="9" r="7.5"></circle>
            <path d="M9.31677019,13.3937884 C9.18012354,13.5304351 9.01242335,13.5987574 8.8136646,13.5987574 C8.61904665,13.5987574 8.45134646,13.5304351 8.31055901,13.3937884 C8.17391236,13.253001 8.10559006,13.0853008 8.10559006,12.8906828 C8.10559006,12.6960649 8.17391236,12.5283647 8.31055901,12.3875773 C8.45134646,12.2509306 8.61904665,12.1826083 8.8136646,12.1826083 C9.01242335,12.1826083 9.18012354,12.2509306 9.31677019,12.3875773 C9.45755764,12.5283647 9.52795031,12.6960649 9.52795031,12.8906828 C9.52795031,13.0853008 9.45755764,13.253001 9.31677019,13.3937884 Z M9,4.39999962 C9.5548682,4.39999962 10.0269132,4.59564984 10.4161491,4.98695614 C10.805385,5.37826244 11,5.84927223 11,6.39999962 C11,6.92174136 10.8178072,7.34616776 10.4534161,7.67329154 C10.1428556,7.95072564 9.91407941,8.17018515 9.76708075,8.33167664 C9.62008208,8.49316813 9.54658385,8.70848689 9.54658385,8.97763937 L8.13043478,8.97763937 C8.13043478,8.33581421 8.32504981,7.82753772 8.71428571,7.45279465 C9.10352161,7.07805158 9.34161447,6.84927539 9.42857143,6.76645925 C9.53209161,6.67536148 9.58385093,6.55320949 9.58385093,6.39999962 C9.58385093,6.24264894 9.52691568,6.10703953 9.41304348,5.99316732 C9.29917127,5.87929512 9.16149149,5.82235987 9,5.82235987 C8.84264932,5.82235987 8.70703991,5.87929512 8.5931677,5.99316732 C8.4792955,6.10703953 8.42236025,6.24264894 8.42236025,6.39999962 L7,6.39999962 C7,5.84927223 7.19565022,5.37826244 7.58695652,4.98695614 C7.97826283,4.59564984 8.44927261,4.39999962 9,4.39999962 Z M9.54037267,8.97763937 L9.54037267,10.8161487 L8.13043478,10.8161487 L8.13043478,8.97763937 L9.54037267,8.97763937 Z" id="?" fill="#F51C73"></path>
        </g>
    </g>
</svg>