<?xml version="1.0" encoding="UTF-8"?>
<svg width="138px" height="32px" viewBox="0 0 138 32" version="1.1" xmlns="http://www.w3.org/2000/svg" xmlns:xlink="http://www.w3.org/1999/xlink">
    <!-- Generator: Sketch 46.2 (44496) - http://www.bohemiancoding.com/sketch -->
    <title>logo</title>
    <desc>Created with Sketch.</desc>
    <defs></defs>
    <g id="working" stroke="none" stroke-width="1" fill="none" fill-rule="evenodd">
        <g id="logo">
            <g id="Group" transform="translate(42.000000, 9.000000)">
                <path d="M47.7128906,10.9389648 C47.5136709,10.7426748 47.4140625,10.5039077 47.4140625,10.2226562 L47.4140625,3.19140625 C47.4140625,2.91601425 47.5136709,2.68017676 47.7128906,2.48388672 C47.9121104,2.28759667 48.1494127,2.18945312 48.4248047,2.18945312 C48.7060561,2.18945312 48.9448232,2.28759667 49.1411133,2.48388672 C49.3374033,2.68017676 49.4355469,2.91601425 49.4355469,3.19140625 L51.4658203,3.19140625 C51.4658203,2.35937084 51.16846,1.6474639 50.5737305,1.05566406 C49.9790009,0.463864229 49.2626995,0.16796875 48.4248047,0.16796875 C47.5869099,0.16796875 46.8720733,0.463864229 46.2802734,1.05566406 C45.6884736,1.6474639 45.3896485,2.35937084 45.3837891,3.19140625 L45.3837891,10.2226562 C45.3896485,11.0605511 45.6884736,11.7739228 46.2802734,12.362793 C46.8720733,12.9516631 47.5869099,13.2460937 48.4248047,13.2460937 C49.2626995,13.2460937 49.9790009,12.9516631 50.5737305,12.362793 C51.16846,11.7739228 51.4658203,11.0605511 51.4658203,10.2226562 L49.4355469,10.2226562 C49.4355469,10.5039077 49.3374033,10.7426748 49.1411133,10.9389648 C48.9448232,11.1352549 48.7060561,11.2333984 48.4248047,11.2333984 C48.1494127,11.2333984 47.9121104,11.1352549 47.7128906,10.9389648 Z M57.3964844,0.422851562 L57.3964844,5.71386719 L55.4013672,5.71386719 L55.4013672,0.422851562 L53.3974609,0.422851562 L53.3974609,13 L55.4013672,13 L55.4013672,7.70898438 L57.3964844,7.70898438 L57.3964844,13 L59.3916016,13 L59.3916016,0.422851562 L57.3964844,0.422851562 Z M64.0478516,8.20117188 L64.9970703,8.20117188 L64.5224609,3.91210938 L64.0478516,8.20117188 Z M67.9150391,13.0175781 L65.9111328,13.0175781 L65.375,10.1962891 L63.6699219,10.1962891 L63.1337891,13.0175781 L61.1386719,13.0175781 L63.5292969,0.431640625 L65.515625,0.431640625 L67.9150391,13.0175781 Z M69.7236328,0.440429688 L71.71875,0.440429688 L71.71875,13 L69.7236328,13 L69.7236328,0.440429688 Z M78.6953125,0.44921875 L78.6953125,7.61230469 L76.0498047,0.44921875 L74.0546875,0.44921875 L74.0546875,13 L76.0498047,13 L76.0498047,5.83691406 L78.6953125,13 L80.6904297,13 L80.6904297,0.44921875 L78.6953125,0.44921875 Z M87.5263672,2.44433594 L87.5263672,0.44921875 L83.0263672,0.44921875 L83.0263672,13 L87.5263672,13 L87.5263672,11.0136719 L85.0126953,11.0136719 L85.0126953,7.7265625 L87.5263672,7.7265625 L87.5263672,5.73144531 L85.0126953,5.73144531 L85.0126953,2.44433594 L87.5263672,2.44433594 Z M91.8046875,2.44433594 L91.8046875,5.73144531 L92.8066406,5.73144531 C93.0820326,5.73144531 93.3164053,5.63476659 93.5097656,5.44140625 C93.703126,5.24804591 93.7998047,5.01367325 93.7998047,4.73828125 L93.7998047,3.44628906 C93.7998047,3.17089706 93.703126,2.93505958 93.5097656,2.73876953 C93.3164053,2.54247949 93.0820326,2.44433594 92.8066406,2.44433594 L91.8046875,2.44433594 Z M96.0585938,13 L94.0634766,13 L92.4550781,7.71777344 L91.8574219,7.71777344 L91.8574219,13 L89.8623047,13 L89.8623047,0.44921875 L92.859375,0.44921875 C93.8203173,0.44921875 94.5571263,0.752438374 95.0698242,1.35888672 C95.5825221,1.96533506 95.8417968,2.60839504 95.8476562,3.28808594 L95.8476562,4.94042969 C95.7949216,5.66699582 95.5781269,6.2294902 95.1972656,6.62792969 C94.8164043,7.02636918 94.4501971,7.26953081 94.0986328,7.35742188 L96.0585938,13 Z" id="PaintsChainer" fill="#131211"></path>
                <path d="M4.65820313,4.73828125 L4.65820313,3.44628906 C4.65820313,3.17089706 4.5615244,2.93505958 4.36816406,2.73876953 C4.17480372,2.54247949 3.94043106,2.44433594 3.66503906,2.44433594 L2.66308594,2.44433594 L2.66308594,5.73144531 L3.66503906,5.73144531 C3.94043106,5.73144531 4.17480372,5.63476659 4.36816406,5.44140625 C4.5615244,5.24804591 4.65820313,5.01367325 4.65820313,4.73828125 Z M0.66796875,0.44921875 L3.66503906,0.44921875 C4.64355958,0.44921875 5.38622793,0.762692178 5.89306641,1.38964844 C6.39990488,2.0166047 6.65332031,2.64941087 6.65332031,3.28808594 L6.65332031,4.94042969 C6.65332031,5.54980773 6.41894766,6.14892284 5.95019531,6.73779297 C5.48144297,7.3266631 4.71973184,7.65331999 3.66503906,7.71777344 L2.66308594,7.71777344 L2.66308594,13 L0.66796875,13 L0.66796875,0.44921875 Z M10.7294922,8.20117188 L11.6787109,8.20117188 L11.2041016,3.91210938 L10.7294922,8.20117188 Z M14.5966797,13.0175781 L12.5927734,13.0175781 L12.0566406,10.1962891 L10.3515625,10.1962891 L9.81542969,13.0175781 L7.8203125,13.0175781 L10.2109375,0.431640625 L12.1972656,0.431640625 L14.5966797,13.0175781 Z M16.4052734,0.440429688 L18.4003906,0.440429688 L18.4003906,13 L16.4052734,13 L16.4052734,0.440429688 Z M25.3769531,0.44921875 L25.3769531,7.61230469 L22.7314453,0.44921875 L20.7363281,0.44921875 L20.7363281,13 L22.7314453,13 L22.7314453,5.83691406 L25.3769531,13 L27.3720703,13 L27.3720703,0.44921875 L25.3769531,0.44921875 Z M35.3769531,0.44921875 L29.3916016,0.44921875 L29.3916016,2.44433594 L31.3867188,2.44433594 L31.3867188,13 L33.3818359,13 L33.3818359,2.44433594 L35.3769531,2.44433594 L35.3769531,0.44921875 Z M40.1914062,2.18945312 C40.8476595,2.18945312 41.1845702,2.52343416 41.2021484,3.19140625 L43.2236328,3.15625 C43.211914,2.33007399 42.911624,1.6254912 42.3227539,1.04248047 C41.7338838,0.459469741 41.0234417,0.16796875 40.1914062,0.16796875 C38.2812404,0.173828154 37.273438,1.18163058 37.1679688,3.19140625 C37.1679688,4.54492864 37.8417901,5.86913415 39.1894531,7.1640625 C40.4726627,8.3945374 41.1142578,9.38476187 41.1142578,10.1347656 C41.1142578,10.8027377 40.8066437,11.1367187 40.1914062,11.1367187 C39.5234342,11.1367187 39.1894531,10.8027377 39.1894531,10.1347656 L37.1767578,10.3896484 C37.2412113,11.1689492 37.5634737,11.8398409 38.1435547,12.4023437 C38.7236357,12.9648466 39.4062461,13.2460937 40.1914062,13.2460937 C41.0351605,13.2460937 41.7514619,12.9531279 42.340332,12.3671875 C42.9292022,11.7812471 43.2236328,11.0605512 43.2236328,10.2050781 C43.2236328,8.72264884 42.5498114,7.35742812 41.2021484,6.109375 C39.9189389,4.79686844 39.2773438,3.82422191 39.2773438,3.19140625 C39.2773438,2.63476284 39.5820282,2.30078181 40.1914062,2.18945312 Z" id="PaintsChainer-Copy" fill="#798184"></path>
            </g>
            <g id="logomark">
                <path d="M29,24.0114918 C28.1731475,24.4370619 27.3496144,24.6512378 26.4483281,24.29298 C25.925816,24.0852835 25.4173861,23.8488883 24.9024851,23.6258117 C24.6449172,23.5142243 24.3809119,23.4595759 24.1060767,23.5523473 C23.7818537,23.6617422 23.5756854,23.8813501 23.5441013,24.2183375 C23.5120814,24.5601353 23.6876379,24.81659 23.9666642,25.0033107 C24.1979119,25.1579951 24.4674496,25.211629 24.7424524,25.2367935 C25.2622821,25.2844063 25.7791278,25.2311977 26.2959399,25.1869882 C26.5133403,25.1684012 26.731009,25.1569152 26.9485099,25.1699065 C27.2289779,25.1866609 27.4414161,25.3477264 27.4828912,25.5628185 C27.5428741,25.8739215 27.4250205,26.1037719 27.1400262,26.2300195 C27.0072523,26.2887911 26.8687115,26.3326079 26.724035,26.3472026 C26.6360555,26.3560707 26.6125184,26.3750831 26.6375979,26.4673309 C26.6973461,26.687397 26.6881592,26.91031 26.6185535,27.1286417 C26.5298365,27.4069557 26.3541123,27.5408606 26.0563435,27.5607238 C25.6979547,27.584612 25.3576714,27.51406 25.0296932,27.3758029 C24.7699124,27.2663098 24.5049347,27.1901293 24.2176604,27.2627429 C23.9767898,27.3236415 23.7790708,27.437585 23.7165397,27.6897529 C23.6508233,27.9547811 23.6898508,28.1976228 23.9145605,28.3899066 C24.2417675,28.669824 24.6176584,28.8691106 25.0138005,29.0372117 C25.3305802,29.1716074 25.6587595,29.2839474 25.9398311,29.4886989 C26.2086646,29.684484 26.3551852,29.9407424 26.3430813,30.2721341 C26.333928,30.5220113 26.2135262,30.6675331 25.9675593,30.729217 C25.5767147,30.8271914 25.242299,30.7449898 24.9692743,30.4398751 C24.7395354,30.1831259 24.5682705,29.890119 24.3895287,29.6009407 C24.1843999,29.26896 23.8896486,29.0477814 23.511109,28.9344269 C23.2528371,28.8571011 22.9673063,28.9374047 22.8110958,29.1249436 C22.6641058,29.3013564 22.6519348,29.5908946 22.7800147,29.8206141 C22.8425793,29.9328233 22.9347834,30.0196716 23.027088,30.1071091 C23.2513618,30.3196814 23.4921318,30.5155975 23.6920637,30.7526471 C23.9266308,31.0306666 23.9995559,31.3283857 23.8263463,31.6609882 C23.7006471,31.9024227 23.4681587,32.0249725 23.1912783,31.9957504 C22.809587,31.9554676 22.5283143,31.7823272 22.4007039,31.4130089 C22.3132945,31.1600883 22.2158264,30.9098184 22.1430355,30.6529056 C21.966406,30.0292924 21.4842626,29.7595519 20.8953972,29.6269887 C20.5555498,29.5505137 20.2044703,29.5715877 19.8621082,29.6314391 C19.4892015,29.6966572 19.2278113,29.9389426 18.9944512,30.2090103 C18.7352069,30.5090855 18.6056854,30.8664597 18.5339674,31.2479839 C18.5118384,31.3654615 18.4863566,31.4846408 18.4424004,31.595541 C18.3355107,31.8654124 18.0292927,32.0113268 17.6628905,31.9793231 C17.4266134,31.9586746 17.2305708,31.78164 17.1705879,31.5311083 C17.1216359,31.3266514 17.1882575,31.1431375 17.2863291,30.9671501 C17.3884577,30.7838981 17.5289767,30.6276757 17.6616834,30.4660213 C17.8144069,30.2800532 17.9293099,30.075629 17.9654539,29.8371395 C18.0467276,29.2999493 17.644282,28.9471564 17.1044356,29.085708 C16.7404811,29.1791338 16.4575655,29.3968765 16.2131409,29.667795 C16.0728901,29.823232 15.9419939,29.9879625 15.7909804,30.1326989 C15.4224324,30.4859826 14.9749577,30.5619668 14.4893608,30.4385335 C14.1928326,30.3632038 14.0105703,30.1214747 14.0091621,29.8218576 C14.0074521,29.4598039 14.1604773,29.1785775 14.4974748,29.0082186 C14.8066434,28.851898 15.1453843,28.7753576 15.4741337,28.6725074 C16.0718172,28.4854594 16.6159888,28.2064909 17.0803955,27.7895598 C17.1749131,27.7047076 17.2672177,27.616223 17.3299835,27.5047665 C17.4520617,27.2879073 17.4723466,27.0618529 17.3323305,26.8518657 C17.1991208,26.6520882 16.9752158,26.6235205 16.7519814,26.6327813 C16.3033332,26.6514992 15.9474256,26.8689801 15.6260525,27.1530208 C15.4309822,27.3254413 15.2533134,27.5143872 15.0887543,27.7144592 C14.82666,28.0331214 14.4669636,28.0937582 14.0800754,28.0846937 C13.9506879,28.0816832 14.0138561,27.9945403 14.0267982,27.9447023 C14.1339561,27.5325815 14.2459421,27.1216388 14.356587,26.7103689 C14.6915057,25.4658585 15.0326942,24.2229516 15.3571519,22.975856 C15.4404038,22.6557867 15.6044264,22.4670044 15.931667,22.3465161 C17.5350118,21.7562155 19.1291362,21.1421248 20.7264123,20.5362805 C21.1531997,20.374397 21.5806578,20.2141169 22.00597,20.0486992 C22.1964468,19.9746457 22.3723386,19.9825321 22.5488675,20.0897018 C24.6638274,21.3739387 26.7797933,22.6566048 28.8953903,23.9398926 C28.9233868,23.9568434 28.9495057,23.9767721 29,24.0114918" id="Fill-1" fill="#EFAB1C"></path>
                <g id="Group-5" transform="translate(0.000000, 1.000000)" fill="#DE4735">
                    <path d="M1.11657462,13.9957347 C1.27927259,13.8056741 1.46457208,13.7046065 1.65501878,13.6105552 C2.09873452,13.3914177 2.58679543,13.3225273 3.06007462,13.2027604 C3.51906701,13.0865832 3.97287919,12.9531753 4.37462538,12.6930494 C4.6188868,12.5348396 4.82292741,12.3436695 4.88568376,12.0424247 C4.96622437,11.655842 4.72631827,11.3047324 4.33183096,11.2389096 C4.08931827,11.198476 3.86310508,11.2576415 3.64101624,11.3466998 C3.20267868,11.522434 2.81891472,11.7824946 2.4628665,12.0865133 C2.14519137,12.3577347 1.7816533,12.5188163 1.35780051,12.5418886 C0.879077157,12.5679305 0.484061929,12.2902802 0.40566599,11.8652872 C0.346407107,11.5439072 0.558465482,11.1725646 0.913589848,10.9902056 C1.23288173,10.8262196 1.58440964,10.7933245 1.93474975,10.7551427 C2.32755431,10.7123594 2.72441726,10.6975436 3.1089731,10.5944527 C3.21610761,10.5657347 3.31661015,10.5245179 3.40863299,10.4630028 C3.57608223,10.3511007 3.61511523,10.1870168 3.58730051,10.0041683 C3.56238934,9.84054126 3.43209239,9.77648065 3.28935635,9.73607972 C3.01269391,9.65785594 2.72435127,9.65602844 2.44224467,9.61311469 C2.37727766,9.60322657 2.31132081,9.59552494 2.24823452,9.5782289 C1.95283096,9.4971986 1.77505431,9.25263916 1.80534365,8.97384662 C1.83464315,8.70458322 2.03799086,8.52891422 2.35121168,8.50434079 C2.56129036,8.48786061 2.76760761,8.52294219 2.97468376,8.54986527 C3.17090457,8.57531981 3.36643249,8.59212634 3.56337919,8.54105408 C3.71245025,8.50238275 3.80909239,8.41733846 3.83743503,8.27061585 C3.86736142,8.11566946 3.82403909,7.97899814 3.69116853,7.8807697 C3.42338173,7.68277902 3.11164569,7.59812634 2.78813046,7.55371142 C2.14123198,7.46488159 1.48803147,7.41312401 0.85838934,7.22655524 C0.727267513,7.18772075 0.595518782,7.1452965 0.472084772,7.08773007 C0.110592386,6.91920793 -0.0616081218,6.56832681 0.019922335,6.1869655 C0.0907954315,5.85550163 0.413815736,5.61077902 0.795698985,5.59632214 C1.06790711,5.58600979 1.31774467,5.66097016 1.5502269,5.793138 C1.75492741,5.90951096 1.96018883,6.02650396 2.1547599,6.15828019 C2.66126497,6.50132914 3.22125482,6.74014499 3.77672437,6.98780466 C4.08938426,7.12721725 4.41517614,7.18406573 4.75601371,7.10186061 C5.01515584,7.0393338 5.17930558,6.8839958 5.23793756,6.62370676 C5.30013299,6.34759021 5.1824731,6.14764149 4.96153909,5.99530583 C4.74806193,5.84812634 4.50508731,5.75965548 4.26551117,5.66488625 C4.07196294,5.58829417 3.87768883,5.51320326 3.68691218,5.43024755 C3.49653147,5.34745501 3.33716599,5.22533846 3.24108477,5.03645268 C3.01312284,4.58832214 3.2604198,4.1630028 3.76527513,4.12622424 C4.05714822,4.10497949 4.31810508,4.19136177 4.56606193,4.33064382 C4.71886142,4.41643869 4.87077005,4.50396317 5.02050102,4.59488159 C5.1915467,4.69875571 5.37654924,4.73262984 5.57346294,4.71422424 C5.8506203,4.68828019 6.03697563,4.45455524 5.96956701,4.1879352 C5.86111269,3.7587324 5.61510254,3.4100704 5.27812538,3.12279301 C5.08708477,2.95991655 4.87179289,2.8238 4.71754162,2.62042471 C4.62023959,2.49210769 4.54992741,2.35328252 4.53385888,2.19128718 C4.51092741,1.95974872 4.59602132,1.77817296 4.78831574,1.64372075 C4.98456954,1.506462 5.19138173,1.47793986 5.40898325,1.58514266 C5.5880467,1.67338508 5.71078782,1.81690956 5.79654162,1.99355758 C5.92337411,2.25479301 5.98837411,2.53547832 6.0638665,2.81319394 C6.21996548,3.38761818 6.5559198,3.80794452 7.14916853,3.97499814 C7.61482589,4.10612168 7.99809492,3.8722662 8.1093868,3.40713333 C8.25977766,2.77834079 8.22176751,2.15480233 8.01660508,1.54320793 C7.91405685,1.23762284 7.86123198,0.931907226 7.94797563,0.615455012 C8.07553401,0.15028951 8.50139949,-0.107029837 8.89572183,0.0543780886 C9.21956701,0.186937529 9.31620914,0.476760373 9.36514061,0.788872261 C9.41344518,1.09739441 9.32782335,1.39423357 9.27968376,1.69361818 C9.18789188,2.26455058 9.15242234,2.8394317 9.15971421,3.41617296 C9.16618122,3.92865781 9.4581203,4.30385128 9.90503655,4.40553893 C10.3293843,4.50210303 10.6640848,4.34017296 10.8569401,3.95398182 C11.0143589,3.63867179 11.0598919,3.30218228 11.0684376,2.95717529 C11.0704503,2.87598182 11.0687345,2.79469044 11.0687345,2.71055991 C11.136968,2.7116042 11.1326787,2.76613566 11.1465365,2.79971608 C11.7231228,4.19867179 12.2951558,5.59945501 12.8761635,6.99658322 C13.0190315,7.34018695 13.002864,7.63232681 12.7844046,7.95759021 C11.6345975,9.66924522 10.5005619,11.3913758 9.3749731,13.1187604 C9.19897817,13.3888723 8.98190457,13.4993385 8.67327005,13.5169282 C7.82813807,13.565096 6.98379797,13.6272312 6.13902893,13.6822848 C4.52666599,13.7873338 2.91427005,13.8913711 1.30184112,13.9953431 C1.25347056,13.9984434 1.20473706,13.9957347 1.11657462,13.9957347" id="Fill-3"></path>
                </g>
                <path d="M0.802441012,16.4796399 C1.02562308,16.4655197 1.22400713,16.4522399 1.42249466,16.440574 C3.90553739,16.2945978 6.38864909,16.1496303 8.87158835,16.0018387 C9.10660034,15.987853 9.28235923,16.0523017 9.43845907,16.2415462 C10.9114055,18.0271481 12.3924225,19.8063623 13.8729566,21.5859799 C13.9778739,21.7120869 14.0278838,21.8414886 13.9841855,22.0043417 C13.5275435,23.7054913 13.0728329,25.4071452 12.6174325,27.108631 C12.5672847,27.2960936 12.5576621,27.3009684 12.3866972,27.1896877 C12.1616872,27.0432073 11.9906189,26.8577618 11.8993595,26.6000679 C11.7782321,26.2580898 11.4043306,26.0903618 11.0270146,26.1910188 C10.6391448,26.2945334 10.4566949,26.5659777 10.5201212,26.9478959 C10.5829957,27.326284 10.5905834,27.704941 10.5453676,28.0861868 C10.4843555,28.600566 10.2807636,28.8342892 9.76321294,28.9535714 C9.63536007,28.9830221 9.50447212,29 9.37092847,29 C8.81626707,28.9999328 8.50272231,28.7904493 8.32810157,28.2738176 C8.28347206,28.1417599 8.21987327,28.105787 8.08081129,28.0827576 C7.62999801,28.0079541 7.33073193,27.7370141 7.17835697,27.3201316 C7.03229361,26.9205632 7.10530805,26.5613718 7.41240326,26.2513323 C7.71949846,25.9413263 8.09184796,25.7194036 8.46609437,25.4998007 C8.70707306,25.3583968 8.95557047,25.2285581 9.19203103,25.0803631 C9.83764145,24.6756508 10.0362324,24.0584966 10.0119863,23.3545367 C10.0015014,23.049372 9.64067147,22.7483089 9.28573921,22.7109912 C8.6275056,22.6418021 8.08274271,22.8444944 7.64562179,23.3409208 C7.08644225,23.9758598 6.70753974,24.7007983 6.43258882,25.4881011 C6.24741427,26.0184496 6.01560981,26.5305091 5.66826526,26.9848101 C5.36351534,27.38337 4.89283606,27.5212102 4.41463806,27.3473298 C3.98400118,27.1907635 3.8035517,26.8372203 3.93954411,26.4061839 C4.06587944,26.0058759 4.34524502,25.7191683 4.69476241,25.4990274 C5.1703737,25.1994772 5.5801099,24.841328 5.86351077,24.3574417 C5.94335414,24.2211144 6.01119514,24.0796433 6.06048075,23.9297337 C6.19574888,23.5181631 6.00315907,23.1810598 5.56948711,23.0752927 C5.26163313,23.0001866 4.97585248,23.0624164 4.71121394,23.2218403 C4.41736273,23.3988473 4.18993845,23.640303 4.01004081,23.9270442 C3.85732095,24.1704834 3.70905026,24.4174863 3.54108601,24.650806 C3.19953571,25.1251779 2.52191896,25.286182 1.98757191,25.0324216 C1.41063024,24.7584222 1.38797059,23.8581241 1.95066807,23.480442 C2.19368164,23.3173535 2.46787379,23.2144777 2.7422039,23.1146276 C3.08620295,22.9894283 3.43230588,22.8695746 3.77647738,22.7448461 C3.85676912,22.7157315 3.93712984,22.6827507 4.01045468,22.6400539 C4.25119194,22.4999276 4.3664906,22.2626408 4.31206605,22.0339942 C4.25019174,21.774115 4.07115634,21.6307276 3.76961396,21.5975451 C3.42885692,21.5600593 3.13924793,21.6856283 2.86853922,21.8675101 C2.59000139,22.0546702 2.329812,22.2681207 2.01526705,22.4021955 C1.64043431,22.5619893 1.24590801,22.632355 0.841966069,22.6372971 C0.215842258,22.6450296 -0.144125475,22.1547556 0.054948373,21.5784828 C0.161521171,21.2698552 0.432747218,21.1602555 0.721976825,21.0808461 C0.959851449,21.0155569 0.971439947,21.0152207 0.911359101,20.7937351 C0.727805564,20.1174104 1.29584892,19.5593594 1.82585028,19.4491881 C2.19547509,19.3723674 2.56872132,19.3843696 2.94162264,19.3945563 C3.89967416,19.4206451 4.83237583,19.2658271 5.74300418,18.9954586 C6.2413441,18.8475325 6.60624384,18.5385688 6.72030088,18.0073126 C6.77179382,17.7675379 6.69488206,17.5767469 6.5180195,17.4179281 C6.21630467,17.1471226 5.85154288,17.1093678 5.46881203,17.1702864 C4.86345094,17.2666401 4.31582541,17.5010356 3.88349854,17.9266592 C3.43744482,18.3657979 2.74575632,18.3323801 2.3444011,18.1556757 C2.01761234,18.0117503 1.90034777,17.7534513 1.90728018,17.4229374 C1.90959098,17.3114886 1.95556559,17.1759682 1.90617651,17.0952476 C1.85302807,17.0083074 1.6953762,17.0530551 1.58525098,17.0252517 C1.26073853,16.9433544 1.00444647,16.7751894 0.802441012,16.4796399" id="Fill-6" fill="#7DB636"></path>
                <path d="M29.2422136,22 C28.9967374,21.8614574 28.7866152,21.7431102 28.5767432,21.6244707 C26.616294,20.516065 24.6632801,19.39675 22.6857794,18.3134424 C22.4818773,18.2017187 22.3926164,18.0526239 22.3814991,17.8366442 C22.3214795,16.6697629 22.2510574,15.5033038 22.1851038,14.3366499 C22.1429936,13.5912083 22.1031354,12.8456693 22.060775,12.1002601 C22.0432946,11.7924274 22.0240268,11.4846596 22.0013988,11.177119 C21.9906747,11.0309139 22.041114,10.919872 22.1699827,10.8241228 C23.8295834,9.59120087 25.4865387,8.35538927 27.14378,7.11983742 C27.3771379,6.94583936 27.4332253,6.95389152 27.5943738,7.19298869 C27.9132748,7.6660855 27.8323788,8.27162085 27.3934744,8.66591689 C27.0893012,8.93920327 26.7306136,9.14037737 26.3441146,9.30236214 C26.0792277,9.41333907 25.8100868,9.51691321 25.5810901,9.68675532 C25.4395668,9.79175808 25.3297514,9.91731331 25.2768455,10.0780643 C25.1406843,10.492166 25.4829282,10.8516235 25.9534332,10.7899011 C26.2305457,10.753569 26.451535,10.6201239 26.6526131,10.4535611 C26.8430744,10.2957973 26.9944281,10.1084547 27.1451027,9.91981338 C27.3799977,9.62574723 27.6907125,9.4346708 28.0960146,9.4069428 C28.6437335,9.36947428 28.956486,9.73191884 28.8044531,10.2119314 C28.7269173,10.4566132 28.5510052,10.6238253 28.3058865,10.7354192 C28.1303319,10.8153239 27.945483,10.8803256 27.7768276,10.9705227 C27.4422693,11.149456 27.2018692,11.3906961 27.2089829,11.7730762 C27.2113423,11.8999951 27.2676441,12.001329 27.3717043,12.0848052 C27.7919129,12.4217945 28.2717122,12.4446198 28.7785363,12.2993238 C29.088715,12.2103929 29.3569264,12.0454535 29.6212056,11.8788582 C29.9762471,11.6549887 30.3596718,11.5084589 30.7965386,11.4933936 C31.0767254,11.483718 31.3445793,11.5204397 31.5723964,11.682879 C31.9530328,11.9543147 31.9600393,12.4094565 31.587017,12.6867365 C31.3561257,12.8583644 31.0806933,12.9457043 30.7963599,13.0128814 C30.3258549,13.1240207 29.8391565,13.1119749 29.3614305,13.1683076 C29.1576714,13.1923017 28.9658518,13.2420108 28.7940864,13.3487669 C28.4525931,13.5610451 28.3696596,13.9097556 28.5957608,14.2276535 C28.836697,14.5664286 29.2144737,14.6652948 29.6272469,14.6896461 C29.9725293,14.7100363 30.3173471,14.6783471 30.662415,14.6706197 C30.9549703,14.6640611 31.2477758,14.668769 31.5258177,14.765817 C31.8977676,14.8956905 32.0737154,15.2041401 31.9711209,15.5295058 C31.8969097,15.7649016 31.7177803,15.8889633 31.4606148,15.9258149 C30.8889094,16.0076677 30.3317532,15.9302955 29.7861791,15.7779863 C29.3961769,15.6691848 29.0037438,15.5888255 28.5934729,15.6007414 C28.382886,15.6068455 28.1782689,15.6384048 27.9909177,15.7318163 C27.7320363,15.8608781 27.6109962,16.0949427 27.6645813,16.359625 C27.742117,16.7428168 28.0040012,17.0205189 28.3076024,17.2707527 C28.6645742,17.5649163 29.0795279,17.7756036 29.5231152,17.9418093 C30.0464189,18.1379183 30.5697225,18.3335728 31.0362595,18.6325741 C31.3448295,18.830404 31.5916641,19.0734623 31.7261452,19.3994124 C31.8449332,19.6872121 31.8199459,19.9599141 31.5662836,20.17716 C31.3173042,20.3904124 31.0144537,20.423108 30.7025592,20.3041114 C30.2224739,20.1208923 29.8903465,19.783351 29.609838,19.3997695 C29.3941035,19.1047943 29.152631,18.8323196 28.841094,18.6160477 C28.6371918,18.4744531 28.4080878,18.3944835 28.1497426,18.3800675 C27.6501752,18.3521122 27.2952052,18.8210531 27.5085447,19.2337587 C27.6251521,19.459349 27.8344879,19.6177623 28.0174779,19.7943578 C28.1153538,19.8888083 28.215446,19.9836809 28.3277996,20.0628713 C28.8689053,20.4443424 29.0863557,20.9745511 29.1790125,21.564112 C29.1997101,21.6956414 29.2173335,21.8275279 29.2422136,22" id="Fill-8" fill="#804E9B"></path>
                <path d="M13.0294368,3.27158553 C13.4157096,3.47701316 13.787212,3.68901974 14.1806856,3.85707895 C14.4612215,3.97688158 14.7585373,4.02918421 15.0628866,3.97454605 C15.5208675,3.89230921 15.7171354,3.56257237 15.5791115,3.12494079 C15.518322,2.93217763 15.4060206,2.77020395 15.2626378,2.62803289 C15.0702215,2.43727632 14.8668196,2.25592763 14.7066904,2.03668421 C14.5184943,1.77908553 14.3623842,1.50855921 14.4246474,1.17158553 C14.5022837,0.751421053 14.916456,0.486190789 15.3366904,0.592506579 C15.8306761,0.717440789 16.1060876,1.05559868 16.2362407,1.51931579 C16.3361498,1.87543421 16.3178292,2.24783553 16.36981,2.61099342 C16.4298962,3.03063158 16.5374081,3.43145395 16.8661402,3.73359211 C17.2185517,4.05753947 17.6367766,4.16276974 18.1042694,4.047375 C18.4594273,3.95967763 18.7427431,3.56382237 18.780456,3.13155263 C18.803499,2.86724342 18.74981,2.623 18.6206282,2.38776974 C18.3591163,1.91168421 18.1488818,1.41655263 18.1445612,0.863263158 C18.1402072,0.302572368 18.4821019,-0.0159473684 19.0518148,0.0122105263 C19.3673842,0.0278355263 19.561877,0.211848684 19.6819823,0.480138158 C19.830456,0.811684211 19.862944,1.16694737 19.8825038,1.52339474 C19.9013938,1.86730921 19.8781833,2.211125 19.937834,2.55559868 C20.056834,3.24336184 20.7407574,3.38359211 21.232901,3.08007237 C21.5298148,2.89694737 21.6932933,2.62392105 21.8201306,2.32204605 C21.9413077,2.03369079 22.0389057,1.73553289 22.1653411,1.44957895 C22.3139823,1.11349342 22.5757287,0.885368421 22.9433794,0.809809211 C23.4558866,0.704414474 24.0439536,1.13714474 23.8478866,1.80155263 C23.7134464,2.25694737 23.4052789,2.58852632 23.0358531,2.87918421 C22.6662933,3.16994079 22.3510923,3.50875658 22.1832933,3.95596053 C22.0933651,4.1955 22.1624943,4.41306579 22.3791258,4.558625 C22.7053794,4.77790132 23.0421498,4.75253947 23.3739967,4.57523684 C23.7360541,4.38181579 23.9795469,4.06082895 24.2406904,3.76253947 C24.5286282,3.43365789 24.8764177,3.21526974 25.3168483,3.15526974 C25.6365038,3.11178289 25.922566,3.18303289 26.1138435,3.45681579 C26.2988914,3.72171711 26.2636569,3.99717763 26.0987383,4.25977632 C25.8696809,4.62448026 25.5263124,4.85326316 25.131633,5.01263816 C24.7866234,5.15194737 24.4274464,5.25760526 24.1009919,5.44063158 C23.8292311,5.59296711 23.5969249,5.78382237 23.4525708,6.06306579 C23.230011,6.49382237 23.3821689,6.83484211 23.8546856,6.96105921 C24.1826474,7.04869079 24.4980493,7.01842763 24.7836091,6.83076316 C25.0151785,6.678625 25.2383746,6.51398684 25.4626426,6.35128947 C25.9064895,6.02925 26.405901,6.02819737 26.919212,6.10253947 C26.9462072,6.10645395 26.9857287,6.11148684 26.9799344,6.14250658 C26.97481,6.17017105 26.9460062,6.19714474 26.921456,6.21717763 C26.6428962,6.44513816 26.3635325,6.67211184 26.083633,6.89846053 C24.8994273,7.85615789 23.7122742,8.81033553 22.5328244,9.77359211 C22.2782455,9.98151974 22.0226952,10.0417829 21.6991211,9.95378947 C19.6160349,9.38744079 17.5368005,8.80684868 15.4407861,8.28750658 C15.173145,8.22122368 15.0098005,8.07227632 14.9054368,7.82184868 C14.2948292,6.35655263 13.6752455,4.89490789 13.059011,3.43188158 C13.0403555,3.38757237 13.0096761,3.34546711 13.0294368,3.27158553" id="Fill-10" fill="#36A0D3"></path>
                <path d="M31.9948737,6.68419654 C32.0116693,6.85329529 31.9891035,7.0024233 31.8744715,7.11938256 C31.8348526,7.15980627 31.833951,7.20851329 31.8484281,7.26235483 C31.8781551,7.37267609 31.8459294,7.46495561 31.7791337,7.54863977 C31.4672057,7.93931717 31.0712486,8.053156 30.6176406,7.97843597 C30.6008708,7.97565595 30.5779701,7.97494676 30.5691345,7.96314588 C30.4612258,7.8186985 30.2892262,7.77583519 30.1674844,7.66276228 C29.9553764,7.4657499 29.9478288,7.05864772 30.127273,6.81017667 C30.2261657,6.67321831 30.3650379,6.60485261 30.5026736,6.52485622 C30.6310358,6.45022129 30.6394593,6.23394737 30.7887643,6.1635392 C31.0978587,6.01775855 31.4118217,5.91013221 31.7348007,6.10785377 C31.9391033,6.23295451 32.0224627,6.43566876 31.9948737,6.68419654" id="Fill-13" fill="#804E9B"></path>
                <path d="M5.99712083,29 C6.00717769,29.0708409 5.98951626,29.1158422 5.96541447,29.1537627 C5.84005049,29.3511507 5.82781382,29.5779691 5.87490272,29.8158617 C5.92583106,30.0729494 5.90076322,30.3250034 5.8596688,30.5770909 C5.84195783,30.6857181 5.7951414,30.7662237 5.7240498,30.8249838 C5.50220436,31.0082774 5.27689104,31.0853601 5.04305663,30.8678037 C4.99393654,30.8221313 4.94838342,30.8417963 4.90191378,30.8576692 C4.67395001,30.9355909 4.45185686,30.9638802 4.23008573,30.8081376 C3.96281102,30.6204143 3.91492946,30.0143571 4.15780514,29.7718672 C4.2382848,29.6915293 4.29468744,29.5986073 4.34767174,29.4790066 C4.46733848,29.2087978 4.67120047,29.1120837 4.89780186,29.114869 C4.99195489,29.1160099 5.08586021,29.1419167 5.18003801,29.1547359 C5.49137961,29.1972203 5.49633373,29.2779608 5.99712083,29" id="Fill-15" fill="#7DB636"></path>
                <path d="M30.2584577,11.9988833 C30.0391095,12.0114433 29.9546742,11.9182743 30.0232679,11.7081286 C30.223702,11.09461 30.5151154,10.545438 30.9871709,10.1694815 C31.1946678,10.0042331 31.4406713,9.94640086 31.6922613,10.0564415 C31.9212261,10.1565934 32.0364667,10.3878756 31.98974,10.6683198 C31.9223035,11.0728175 31.7409433,11.3876611 31.4319724,11.5910113 C31.0602736,11.8356501 30.6540585,11.9452221 30.2584577,11.9988833" id="Fill-17" fill="#804E9B"></path>
            </g>
        </g>
    </g>
</svg>